{"title":"Doctor.Who.At.The.Proms.2010.1080.BluRay.MKV","uid":11552340,"size":13869279471,"categoryP":"video","categoryS":"hd___tv_shows","magnet":"?xt=urn:btih:8a8666589f642863ee57322f68badfeef09265d7&amp;dn=Doctor.Who.At.The.Proms.2010.1080.BluRay.MKV&amp;tr=udp%3A%2F%2Ftracker.openbittorrent.com%3A80&amp;tr=udp%3A%2F%2Fopen.demonii.com%3A1337&amp;tr=udp%3A%2F%2Ftracker.coppersurfer.tk%3A6969&amp;tr=udp%3A%2F%2Fexodus.desync.com%3A6969","seeders":0,"leechers":1,"uploader":"piratebuddha","files":-1,"time":1416791526,"description":"The Doctor Who Prom 2010 was a concert showcasing incidental music from the British science fiction television series Doctor Who, along with classical music, performed as part of the BBC's Proms series of concerts. The concert was performed on 24 and 25 July 2010 at the Royal Albert Hall in London, and was hosted by actors Matt Smith, who portrays the Doctor, and Karen Gillan and Arthur Darvill, who play his companions, Amy Pond and Rory Williams.\n\n==========================================================================\n\nThis video was ripped directly from the 'A Christmas Carol' Blu-ray using MakeMKV and is not compressed or altered in any way.\n &lt;a href=&quot;\nhttp://bayimg.com/dAgaEaAGg&quot; rel=&quot;nofollow&quot; target=&quot;_NEW&quot;&gt;\nhttp://bayimg.com/dAgaEaAGg&lt;/a&gt; &lt;a href=&quot;\nhttp://bayimg.com/dAGafAAGg&quot; rel=&quot;nofollow&quot; target=&quot;_NEW&quot;&gt;\nhttp://bayimg.com/dAGafAAGg&lt;/a&gt; &lt;a href=&quot;\nhttp://bayimg.com/daGaGaAGG&quot; rel=&quot;nofollow&quot; target=&quot;_NEW&quot;&gt;\nhttp://bayimg.com/daGaGaAGG&lt;/a&gt; &lt;a href=&quot;\nhttp://bayimg.com/DagAhAaGG&quot; rel=&quot;nofollow&quot; target=&quot;_NEW&quot;&gt;\nhttp://bayimg.com/DagAhAaGG&lt;/a&gt; &lt;a href=&quot;\nhttp://bayimg.com/DAgAmAaGG&quot; rel=&quot;nofollow&quot; target=&quot;_NEW&quot;&gt;\nhttp://bayimg.com/DAgAmAaGG&lt;/a&gt; &lt;a href=&quot;\nhttp://bayimg.com/DagAnAAgG&quot; rel=&quot;nofollow&quot; target=&quot;_NEW&quot;&gt;\nhttp://bayimg.com/DagAnAAgG&lt;/a&gt; &lt;a href=&quot;\nhttp://bayimg.com/DAgAoAAGg&quot; rel=&quot;nofollow&quot; target=&quot;_NEW&quot;&gt;\nhttp://bayimg.com/DAgAoAAGg&lt;/a&gt; &lt;a href=&quot;\nhttp://bayimg.com/DAgApaAgg&quot; rel=&quot;nofollow&quot; target=&quot;_NEW&quot;&gt;\nhttp://bayimg.com/DAgApaAgg&lt;/a&gt;\n\nGeneral\nUnique ID                      : 65797971091384662022621761730533018809 (0x31803A7096F5F8BC4C7734E8B7B24CB9)\nComplete name                  : C:VideoDoctor.Who.At.The.Proms.2010.mkv\nFormat                         : Matroska\nFormat version                 : Version 2\nFile size                      : 12.9 GiB\nDuration                       : 57mn 19s\nOverall bit rate               : 32.3 Mbps\nMovie name                     : Doctor Who - A Christmas Carol\nEncoded date                   : UTC 2014-11-23 21:22:27\nWriting application            : MakeMKV v1.9.0 win(x64-release)\nWriting library                : libmakemkv v1.9.0 (1.3.0/1.4.1) win(x64-release)\n\nVideo\nID                             : 1\nFormat                         : VC-1\nFormat profile                 : Advanced@L3\nCodec ID                       : V_MS/VFW/FOURCC / WVC1\nCodec ID/Hint                  : Microsoft\nDuration                       : 57mn 19s\nBit rate                       : 31.2 Mbps\nWidth                          : 1 920 pixels\nHeight                         : 1 080 pixels\nDisplay aspect ratio           : 16:9\nFrame rate mode                : Constant\nFrame rate                     : 29.970 fps\nColor space                    : YUV\nChroma subsampling             : 4:2:0\nBit depth                      : 8 bits\nScan type                      : Interlaced\nScan order                     : Top Field First\nCompression mode               : Lossy\nBits/(Pixel*Frame)             : 0.502\nStream size                    : 12.5 GiB (97%)\nLanguage                       : English\nDefault                        : No\nForced                         : No\n\nAudio\nID                             : 2\nFormat                         : AC-3\nFormat/Info                    : Audio Coding 3\nMode extension                 : CM (complete main)\nFormat settings, Endianness    : Big\nCodec ID                       : A_AC3\nDuration                       : 57mn 19s\nBit rate mode                  : Constant\nBit rate                       : 448 Kbps\nChannel(s)                     : 2 channels\nChannel positions              : Front: L R\nSampling rate                  : 48.0 KHz\nBit depth                      : 16 bits\nCompression mode               : Lossy\nStream size                    : 184 MiB (1%)\nTitle                          : Stereo\nLanguage                       : English\nDefault                        : Yes\nForced                         : No\n\nText\nID                             : 3\nFormat                         : PGS\nCodec ID                       : S_HDMV/PGS\nCodec ID/Info                  : The same subtitle format used on BDs/HD-DVDs\nLanguage                       : English\nDefault                        : No\nForced                         : No\n\nMenu\n00:00:00.000                   : en:Chapter 01\n00:03:59.339                   : en:Chapter 02\n00:09:40.112                   : en:Chapter 03\n00:15:51.283                   : en:Chapter 04\n00:30:29.327                   : en:Chapter 05\n00:42:35.586                   : en:Chapter 06\n\n==========================================================================\n\nThousands of candles can be lit from a single candle, and the life of the candle will not be shortened. Happiness never decreases by being shared. ~Siddhartha\n\n#KeepSeeding!","torrent":{"xt":"urn:btih:8a8666589f642863ee57322f68badfeef09265d7","amp;dn":"Doctor.Who.At.The.Proms.2010.1080.BluRay.MKV","amp;tr":["udp%3A%2F%2Ftracker.openbittorrent.com%3A80","udp%3A%2F%2Fopen.demonii.com%3A1337","udp%3A%2F%2Ftracker.coppersurfer.tk%3A6969","udp%3A%2F%2Fexodus.desync.com%3A6969"],"infoHash":"8a8666589f642863ee57322f68badfeef09265d7","infoHashBuffer":{"type":"Buffer","data":[138,134,102,88,159,100,40,99,238,87,50,47,104,186,223,238,240,146,101,215]},"announce":[],"urlList":[]}}